<svg id="Camada_1" data-name="Camada 1" xmlns="http://www.w3.org/2000/svg" viewBox="0 0 314.24 111.8"><defs><style>.cls-1{fill:#7a7a7a;}.cls-2{fill:#f47533;}.cls-3{font-size:32.87px;font-family:Montserrat-Black, Montserrat;font-weight:800;letter-spacing:0.05em;}.cls-3,.cls-7{fill:#374b4a;}.cls-4{letter-spacing:0.04em;}.cls-5{letter-spacing:0.05em;}.cls-6{letter-spacing:0.02em;}.cls-7{font-size:11px;font-family:Montserrat-Regular, Montserrat;letter-spacing:0.06em;}.cls-8{letter-spacing:0.05em;}.cls-9{letter-spacing:0.05em;}.cls-10{letter-spacing:0.04em;}.cls-11{letter-spacing:0.04em;}.cls-12{letter-spacing:0.05em;}.cls-13{letter-spacing:0.04em;}.cls-14{letter-spacing:0.05em;}.cls-15{letter-spacing:0em;}.cls-16{letter-spacing:0.04em;}.cls-17{letter-spacing:0.03em;}.cls-18{letter-spacing:0.05em;}</style></defs><path class="cls-1" d="M.91,38.54l-.48-.43A5.8,5.8,0,0,0,.17,40c.07.91.84,0,.84,0L1,38.9Z"/><path class="cls-1" d="M87.29,4.63c2.09,2.12,2.63,4.81,2.64,7.61,0,10.55-.06,21.1.08,31.65,0,3.21-1.89,2.87-3.92,2.9s-3.66,0-3.62-2.91c.14-9.7,0-19.39,0-29.09,0-6.71-2.2-8.41-8.86-6.88l-1.11.26a.65.65,0,0,1-.92-.12c-.42-1.33.51-2,1.41-2.46C77.63,3.05,82.3,1.34,87.29,4.63Z"/><path class="cls-2" d="M21.92,59.57l-5.58-5.74c-.35-1.13.23-1.8,1.13-2.33a3.57,3.57,0,0,1,1.86-.65c8.42.42,16.87-.71,25.27.46a1.47,1.47,0,0,1,1.12.79A55.51,55.51,0,0,1,40.51,62c-3.32,0-6.65,0-10,.11S24.34,62,21.92,59.57Z"/><path class="cls-2" d="M45.72,52.1c-2,.88-3.92.24-5.9,0-6.54-.63-13.08.18-19.62,0a5.78,5.78,0,0,0-3.86,1.65l-6.9-7.36c-.75-3-.63-3.11,2.31-3.79,1.76-.41,3.83.12,5.17-1.63,3.47,2.32,7.08,4.47,10.37,7,3.79,2.94,4.89,4.23,9-1.17,2.83-1,5.76-.82,8.69-.72,2.22.07,3.1,1.09,2.38,3.28C46.81,50.34,46.27,51.22,45.72,52.1Z"/><path class="cls-1" d="M90.06,92.28q0,3.63.11,7.27c0,1.42,0,2.85,0,4.27C90,107.75,87.93,110,84,110.28c-1.9.14-3.8.09-5.71.1H8.36c-2.19,0-4.56.24-6.13-1.67A11.19,11.19,0,0,1,.32,99.54c1.44.84,1.12,2.26,1.16,3.56a6.57,6.57,0,0,0,.58,3.3,2.9,2.9,0,0,1,2.14.26c.46.16.89.37,1.35.55,2,1,4.12.65,6.19.62,7.34-.12,14.68,0,22,0,14.35-.08,28.71.09,43.07-.13,2.57,0,5.12.15,7.62-.55a5.06,5.06,0,0,0,3-2.53c-.62-3.31.58-6.48.71-9.73a3.07,3.07,0,0,1,1.35-2.65A4.71,4.71,0,0,1,90.06,92.28Z"/><path class="cls-2" d="M16.87,41c.22.91,1.74,1.4,1.22,2.35s-1.88.55-2.89.68c-2.14.27-4.91-1-5.76,2.43L8.3,45.23c-1.36-1.46-2.68-3-4.1-4.37-.71-.72-1.46-1.8-2.63-1.27S.89,41.27.89,42.18c0,4.85,0,9.71,0,14.56q0,19,0,38c0,1.42.17,2.87-.56,4.2,0-19.81-.1-39.62,0-59.43C.26,35.08,4,33,8.13,35.12A49.6,49.6,0,0,1,16.87,41Z"/><path class="cls-2" d="M87.32,4.7c-5.63-1-10.87-.2-15.48,3.44-2.47,2.1-5.4,2.13-8.39,1.88a1.94,1.94,0,0,1-2-1.33A18.24,18.24,0,0,1,80.29.31,10,10,0,0,1,87.32,4.7Z"/><path class="cls-2" d="M55.87,33.86a71.65,71.65,0,0,1-5.06,9.26,45.73,45.73,0,0,1-8.09.79C41,44,40,43.57,39.77,41.79l6.36-9.68a20.67,20.67,0,0,1,7.76,0C54.83,32.3,56.08,32.29,55.87,33.86Z"/><path class="cls-2" d="M21.92,59.57c4.62,1.94,9.47.81,14.21,1.09,1.59.1,3.25-.17,4.38,1.36-.78,1.52-1.47,3.09-2.35,4.55-2,3.39-5.9,4-8.68,1.14C26.88,65.08,24,62.66,21.92,59.57Z"/><path class="cls-2" d="M55.87,33.86c-3.17-1-6.74.2-9.74-1.75q2.59-4,5.21-8c2.73-.64,5.59-.25,8.31-1.14,1-.33,1.87.14,1.28,1.5A72.74,72.74,0,0,1,55.87,33.86Z"/><path class="cls-2" d="M61.44,8.62a53.51,53.51,0,0,0,12-1.93c.25,0-1.16,1.45-.91,1.48-4,1.81-5.45,5.71-7.58,9.06-2.37,2.58-5.24.65-7.87.79-.49,0-.67-.83-.77-1.4Z"/><path class="cls-2" d="M56.33,16.62l8.64.61a40.34,40.34,0,0,1-4,7.27c-1.78.24-3.55.51-5.33.69a5.8,5.8,0,0,1-4.26-1.05Z"/><path class="cls-1" d="M89.53,92.25c.2,4.57-.59,9-1.13,13.56-.58-.74-1.84-.1-2.27-1.12l-3.39-5.13a2.3,2.3,0,0,1-.06-.28C81.92,92,82.23,91.64,89.53,92.25Z"/><path class="cls-2" d="M39.77,41.79c1.44,1.1,3.09.5,4.66.6,2.14.13,4.37-.48,6.38.73a36.77,36.77,0,0,1-3.46,6.34c-.37-1.58-1.44-1.94-3-2-2.71-.05-5.48.47-8.12-.59Q38,44.33,39.77,41.79Z"/><path class="cls-1" d="M3.77,108.12l-.57-.57c0-1.1,1.29-1,1.71-1.71,2.46-2.29,5.64-1.51,8.42-1.55q24.93-.33,49.88-.08c5.48.06,11,.23,16.44,0,1.71-.07,2.73,1.26,4.19,1.61.8,1,.44,1.82-.58,2.44a100.75,100.75,0,0,0-12.53-.09c-14.89.24-29.78.34-44.67,0-3.62-.08-7.27-.08-10.89-.06C11.38,108.17,7.57,108.46,3.77,108.12Z"/><path class="cls-1" d="M4.91,105.84c.47,1.61-.64,1.64-1.71,1.71L2.06,106.4a16.06,16.06,0,0,1,.47-4.78c.29-1,.57-2.26,2-1.7,1.21.48.75,1.58.33,2.43C4.26,103.54,3.41,104.7,4.91,105.84Z"/><path class="cls-1" d="M83.27,108.12l.57-2.28,2.29-1.15c.49-.46.71-1.54,1.62-1.11s.56,1.44.65,2.23l-2.27,2.32A3.26,3.26,0,0,1,83.27,108.12Z"/><path class="cls-1" d="M83.27,108.12h2.86a7.7,7.7,0,0,1-3.91.56h-74c-1.51,0-3.06.21-4.48-.56,4.52-1.57,9.38-1.19,13.81-.83,13.49,1.11,27,.73,40.44.75,4.43,0,8.94-.38,13.34-.38C75.27,107.67,79.39,106.36,83.27,108.12Z"/><text class="cls-3" transform="translate(56.33 79.36)">E<tspan class="cls-4" x="23.77" y="0">S</tspan><tspan class="cls-5" x="46.68" y="0">TR</tspan><tspan class="cls-6" x="95.95" y="0">A</tspan><tspan x="122.94" y="0">TEGIZE</tspan></text><text class="cls-7" transform="translate(98.21 96.62)">O<tspan class="cls-8" x="9.83" y="0">timiza</tspan><tspan class="cls-9" x="47.3" y="0">n</tspan><tspan class="cls-8" x="55.32" y="0">do a per</tspan><tspan class="cls-10" x="104.84" y="0">f</tspan><tspan class="cls-8" x="109.02" y="0">o</tspan><tspan class="cls-11" x="116.47" y="0">r</tspan><tspan class="cls-8" x="121.34" y="0">ma</tspan><tspan class="cls-12" x="140.6" y="0">n</tspan><tspan class="cls-13" x="148.62" y="0">c</tspan><tspan class="cls-14" x="155.26" y="0">e</tspan><tspan class="cls-8"><tspan x="0" y="13.2">do </tspan><tspan class="cls-15" x="18.89" y="13.2">T</tspan><tspan class="cls-14" x="25.15" y="13.2">e</tspan><tspan class="cls-16" x="32.34" y="13.2">r</tspan><tspan class="cls-10" x="37.16" y="13.2">c</tspan><tspan x="43.8" y="13.2">ei</tspan><tspan class="cls-16" x="54.5" y="13.2">r</tspan><tspan x="59.32" y="13.2">o Se</tspan><tspan class="cls-17" x="84.71" y="13.2">t</tspan><tspan class="cls-18" x="89.52" y="13.2">or</tspan></tspan></text><path class="cls-1" d="M.13,100.26c0-.2.14-1.1.15-1.29,0-2.19,0-2,0-3.08q0-27,0-54c0-1.22-.71-2.89,1-3.53S4,39,4.92,40C6.24,41.58,8.8,42.48,8,45.28c-1,.9-.66,2.12-.66,3.21q0,24.69,0,49.37c0,4.64.56,5,5.15,4.75,5.15-.23,10.31-.12,15.47-.12q25.21,0,50.44,0c2.19,0,4.08-.21,4.3-3,3-1,2.76,2,3.92,3.15.56.57.37,1.58.27,2.41a2.74,2.74,0,0,1-3,1.73c-4.7-1.56-9.56-1.1-14.36-.86-3,.14-5.88-.48-8.83-.46-10,.06-20-.31-30,.13-7.53.34-15-.1-22.55.15a8.53,8.53,0,0,0-2.64.79C3.22,107,2.33,106,2.57,104c-.4.79.94,2.69-1.49,2.54C-.53,104.42.93,102.53.13,100.26Z"/><circle class="cls-2" cx="29.99" cy="30.59" r="9.06"/><path class="cls-2" d="M8.1,45S.34,38.42.48,37.94s4.25-1.82,4.25-1.82l5.45,4.69,1.46,2.65Z"/><path class="cls-2" d="M67.83,12.47,38.49,66s-6.08-2-6.08-2l9.15-16.51,22.9-36.55,3.37-.76Z"/><path class="cls-1" d="M8,45.28a.61.61,0,0,1,.34,0c.17.06-.46-.48-.46-.48l-.11.33"/><path class="cls-1" d="M82.44,94.44a.68.68,0,0,0,0,.24c.11,1.14.48,5.94-.52,6.93s2.57,4.71,2.53,0l0-4.71"/><path class="cls-1" d="M.31,98.66s-.77,12,6.48,11.7,14.75.88,6.92-3.34L5.89,102.8Z"/></svg>