<svg id="Camada_1" data-name="Camada 1" xmlns="http://www.w3.org/2000/svg" viewBox="0 0 455.3 455.3"><defs><style>.cls-1{fill:#f47533;}.cls-2{fill:#7a7a7a;}.cls-3{fill:none;stroke:#ffaf57;stroke-miterlimit:10;stroke-width:6px;}</style></defs><path class="cls-1" d="M154,181.77c.48,2,3.86,3.12,2.72,5.24s-4.21,1.23-6.46,1.52c-4.78.61-11-2.19-12.86,5.42l-2.54-2.76c-3-3.27-6-6.61-9.14-9.77-1.59-1.58-3.27-4-5.87-2.82-2.32,1.05-1.53,3.74-1.54,5.77-.08,10.84,0,21.68,0,32.52q0,42.39,0,84.8c0,3.17.37,6.4-1.25,9.37-.07-44.23-.23-88.45-.13-132.67,0-9.87,8.27-14.42,17.59-9.77C141.47,172.12,147.84,176.83,154,181.77Z"/><path class="cls-2" d="M317.33,296.21h-.16c-.22-35.66,0-156.73-.11-178.65,0-6.25-1.23-12.26-5.9-17C300,93.22,289.6,97,279.36,102.7c-2,1.12-4.08,2.53-3.15,5.49a1.42,1.42,0,0,0,2,.27l2.48-.58c14.87-3.41,19.76.39,19.77,15.36,0,21.2.2,152.15-.08,177.9l-.08-.1s.09-1.26,0,.54c-.19,2.52,1,13.13-1.13,15.42-1.77,1.84-4.67,2.05-7.87,2q-56.3-.1-112.59,0c-11.51,0-23-.24-34.53.26-10.26.45-11.48-.24-11.49-10.6q0-55.1,0-110.19c0-2.43-.82-5.16,1.47-7.18,1.77-6.23-3.94-8.25-6.87-11.71-2-2.36-4.6-5.1-8.18-3.73-3.78,1.44-2.18,5.15-2.19,7.88-.09,40.18-.05,80.36-.09,120.54,0,2.29.09,2,.09,6.87,0,.43-.3,2.45-.33,2.88,0,.07,0,.14.07.21a23.32,23.32,0,0,0,.3,9,8.56,8.56,0,0,0,1.23,4.06,20.89,20.89,0,0,0,3.08,5.54c3.51,4.26,8.8,3.74,13.7,3.74H291.05c4.25,0,8.51.09,12.74-.21,8.79-.62,13.48-5.66,13.68-14.42.07-3.18.08-6.37.11-9.55Q317.46,304.31,317.33,296.21ZM121.27,327.68c1.69-1.08.1-3.89.77-5.25-.3,2.51.24,4.27,1.63,5.2A6.08,6.08,0,0,0,121.27,327.68Z"/><path class="cls-2" d="M127.28,326.49c1,3.58-1.44,3.65-3.82,3.81l-2.55-2.56a35.92,35.92,0,0,1,1-10.68c.65-2.28,1.28-5.05,4.46-3.8,2.71,1.07,1.69,3.52.74,5.43C125.83,321.36,123.91,323.93,127.28,326.49Z"/><circle class="cls-1" cx="183.26" cy="158.51" r="20.23"/><path class="cls-2" d="M118.33,176.26l-1.07-1a13,13,0,0,0-.57,4.29c.15,2,1.87,0,1.87,0l-.14-2.53Z"/><path class="cls-2" d="M134.17,191.29a1.56,1.56,0,0,1,.75,0c.38.13-1-1.06-1-1.06l-.25.73"/><path class="cls-2" d="M117,310.44s-1.72,26.81,14.46,26.13,32.92,2,15.46-7.45l-17.46-9.41Z"/><path class="cls-1" d="M134.4,190.69s-17.33-14.7-17-15.77,9.49-4.07,9.49-4.07l12.19,10.47,3.24,5.92Z"/><path class="cls-1" d="M311.23,100.71c-3.66-5.77-9.27-8.59-15.69-9.79a40.67,40.67,0,0,0-41.9,18.54h-.17q-5.72,8.93-11.41,17.86-5.58,8.38-11.15,16.77h0l-11.63,17.8q-7.11,10.8-14.2,21.6l-7.78,11.41c-9.16,12.06-11.62,9.19-20.08,2.63-7.34-5.7-15.4-10.5-23.14-15.69-3,3.91-7.62,2.72-11.55,3.64-6.55,1.53-6.81,1.82-5.16,8.46l15.43,16.43,12.44,12.82c4.73,6.89,11.06,12.3,16.87,18.17,6.21,6.29,14.8,5,19.38-2.55.25-.42.48-.85.73-1.28h0s.22-.41.62-1.12a.54.54,0,0,1,.07-.13c1.16-2.12,3.73-6.82,7.23-13.19,1.42-2.41,2.75-4.86,4-7.35l53.52-97.64c2.64-4,5.79-7.48,10.55-9.66-.34,0,.77-1.31,1.51-2.25C289.27,100,299.9,98.77,311.23,100.71Z"/><circle class="cls-3" cx="227.65" cy="227.65" r="224.65"/></svg>