<svg id="Camada_1" data-name="Camada 1" xmlns="http://www.w3.org/2000/svg" viewBox="0 0 90.15 110.39"><defs><style>.cls-1{fill:#f47533;}.cls-2{fill:#7a7a7a;}</style></defs><path class="cls-1" d="M16.85,41c.22.91,1.74,1.4,1.22,2.35s-1.88.55-2.89.68c-2.14.27-4.91-1-5.76,2.43L8.28,45.23c-1.36-1.46-2.68-3-4.1-4.37-.7-.72-1.46-1.8-2.63-1.27S.87,41.27.87,42.18c0,4.85,0,9.71,0,14.56q0,19,0,38c0,1.42.17,2.87-.56,4.2C.25,79.12.18,59.31.23,39.5c0-4.42,3.7-6.46,7.88-4.38A49.6,49.6,0,0,1,16.85,41Z"/><path class="cls-2" d="M90,92.28H90c-.09-16,0-70.21,0-80,0-2.8-.55-5.49-2.64-7.61-5-3.29-9.66-1.58-14.25,1-.9.5-1.83,1.13-1.41,2.46a.65.65,0,0,0,.92.12l1.11-.26c6.66-1.53,8.85.17,8.86,6.88,0,9.5.08,68.16,0,79.7l0,0s0-.56,0,.24c-.09,1.13.47,5.88-.51,6.91-.79.83-2.09.92-3.52.92q-25.22-.06-50.44,0c-5.16,0-10.32-.11-15.47.11-4.59.21-5.14-.1-5.15-4.74q0-24.69,0-49.37c0-1.09-.37-2.31.66-3.21.8-2.8-1.76-3.7-3.08-5.25C4,39,2.84,37.75,1.24,38.36s-1,2.31-1,3.53c0,18,0,36,0,54,0,1,0,.89,0,3.08,0,.19-.14,1.09-.15,1.29l0,.09a10.46,10.46,0,0,0,.13,4.06,3.84,3.84,0,0,0,.56,1.81,9.35,9.35,0,0,0,1.38,2.49c1.57,1.91,3.94,1.67,6.13,1.67H78.26c1.91,0,3.81,0,5.71-.1,3.94-.27,6-2.53,6.13-6.46,0-1.42,0-2.85.05-4.27Q90.09,95.91,90,92.28ZM2.2,106.38c.76-.49,0-1.75.35-2.36a2.24,2.24,0,0,0,.73,2.33A2.82,2.82,0,0,0,2.2,106.38Z"/><path class="cls-2" d="M4.89,105.84c.47,1.61-.64,1.64-1.71,1.71L2,106.4a16.06,16.06,0,0,1,.47-4.78c.29-1,.57-2.26,2-1.7,1.21.48.75,1.57.33,2.43C4.24,103.54,3.39,104.7,4.89,105.84Z"/><circle class="cls-1" cx="29.97" cy="30.59" r="9.06"/><path class="cls-2" d="M.89,38.54l-.48-.43A5.8,5.8,0,0,0,.15,40c.07.91.84,0,.84,0L.93,38.89Z"/><path class="cls-2" d="M8,45.28a.61.61,0,0,1,.34,0c.17.06-.46-.48-.46-.48l-.11.33"/><path class="cls-2" d="M.29,98.66s-.77,12,6.48,11.7,14.75.88,6.92-3.34L5.87,102.8Z"/><path class="cls-1" d="M8.08,45S.32,38.42.46,37.94s4.25-1.82,4.25-1.82l5.46,4.69,1.45,2.65Z"/><path class="cls-1" d="M87.3,4.7a10,10,0,0,0-7-4.39A18.23,18.23,0,0,0,61.5,8.61h-.08l-5.11,8-5,7.52h0l-5.21,8-6.36,9.68Q38,44.34,36.26,46.9c-4.1,5.4-5.2,4.11-9,1.17-3.29-2.55-6.9-4.7-10.37-7-1.34,1.75-3.41,1.22-5.17,1.63-2.94.68-3.06.81-2.31,3.79l6.9,7.36,5.58,5.74c2.12,3.09,5,5.51,7.56,8.14,2.78,2.82,6.63,2.25,8.68-1.14.11-.19.22-.38.32-.57h0l.28-.5,0-.06L42,59.53c.64-1.08,1.23-2.18,1.8-3.29C52.19,41,67.46,13.12,67.8,12.49a11.34,11.34,0,0,1,4.73-4.32c-.16,0,.34-.59.67-1C77.46,4.37,82.23,3.83,87.3,4.7Z"/></svg>